<?xml version="1.0" encoding="utf-8"?>
<!-- Generator: Adobe Illustrator 16.0.5, SVG Export Plug-In . SVG Version: 6.00 Build 0)  -->
<!DOCTYPE svg PUBLIC "-//W3C//DTD SVG 1.1//EN" "http://www.w3.org/Graphics/SVG/1.1/DTD/svg11.dtd">
<svg version="1.1" id="Layer_1" xmlns="http://www.w3.org/2000/svg" xmlns:xlink="http://www.w3.org/1999/xlink" x="0px" y="0px"
	 width="26px" height="40px" viewBox="0 0 26 40" enable-background="new 0 0 26 40" xml:space="preserve">
<polygon fill="#A5A5A5" points="22.716,40.066 10.288,19.339 11.902,15.175 16.021,16.773 "/>
<path fill="#9D6AC4" d="M12.292,15.327c-4.795,2.114-7.347,6.855-5.7,10.59c0.032,0.074,0.074,0.14,0.108,0.209
	c0.011,0.065,0.021,0.133,0.047,0.192c0.042,0.095,0.107,0.178,0.185,0.251c1.032,0.997,5.485,1.125,9.958-0.847
	c4.393-1.936,7.258-5.25,7.335-6.698c-0.059-0.212-0.136-0.42-0.222-0.626c-0.018-0.045-0.029-0.091-0.048-0.134
	C22.308,14.529,17.086,13.213,12.292,15.327z"/>
<rect x="5.287" y="6.218" transform="matrix(-0.915 0.4035 -0.4035 -0.915 26.1337 19.3948)" fill="#662D91" width="11.474" height="12.466"/>
<g>
	<g>
		<g>
			<path fill="#9D6AC4" d="M13.865,0.396c0.043,0.05,0.084,0.101,0.11,0.162c0.47,1.065-2.236,3.29-6.043,4.97
				c-3.809,1.678-7.277,2.175-7.748,1.11c-0.026-0.06-0.038-0.124-0.045-0.19c-0.191,0.621-0.19,1.212,0.039,1.732
				c0.904,2.051,4.981,2.239,9.107,0.42c4.125-1.819,6.738-4.956,5.833-7.007C14.888,1.074,14.453,0.674,13.865,0.396z"/>
		</g>
		<path fill="#662D91" d="M7.932,5.528c3.808-1.68,6.513-3.904,6.043-4.97c-0.026-0.061-0.066-0.112-0.11-0.162
			C13.465,0.205,12.99,0.074,12.462,0c-1.459-0.006-3.773,0.582-6.234,1.668c-2.46,1.084-4.454,2.396-5.436,3.477
			C0.491,5.584,0.268,6.023,0.139,6.448c0.007,0.066,0.019,0.13,0.045,0.19C0.654,7.704,4.123,7.207,7.932,5.528z"/>
	</g>
</g>
<ellipse transform="matrix(0.915 -0.4034 0.4034 0.915 -6.1434 6.9913)" fill="#662D91" cx="13.525" cy="18.079" rx="5.792" ry="1.617"/>
</svg>
