<?xml version="1.0" encoding="utf-8"?>
<!-- Generator: Adobe Illustrator 16.0.5, SVG Export Plug-In . SVG Version: 6.00 Build 0)  -->
<!DOCTYPE svg PUBLIC "-//W3C//DTD SVG 1.1//EN" "http://www.w3.org/Graphics/SVG/1.1/DTD/svg11.dtd">
<svg version="1.1" id="Layer_1" xmlns="http://www.w3.org/2000/svg" xmlns:xlink="http://www.w3.org/1999/xlink" x="0px" y="0px"
	 width="38px" height="40px" viewBox="0 0 38 40" enable-background="new 0 0 38 40" xml:space="preserve">
<path fill="#FFA4DA" d="M26,12v28H4c-2.2,0-4-1.8-4-4V12H26z"/>
<path fill="#FFC7E6" d="M8,2v34c0,2.2-1.8,4-4,4h29c2.2,0,4-1.8,4-4V2H8z"/>
<rect x="14" y="32.375" fill="#FFA4DA" width="18" height="4"/>
<rect x="14" y="6.5" fill="#FFA4DA" width="18" height="4"/>
<g>
	<path fill="#FC4777" d="M23.409,15.353c0.978,0.524,1.742,1.256,2.295,2.197c0.553,0.942,0.83,2.007,0.83,3.194
		c0,1.189-0.28,2.251-0.839,3.188c-0.558,0.936-1.333,1.668-2.322,2.197c-0.987,0.528-2.111,0.794-3.37,0.794h-5.048V14.567h5.137
		C21.327,14.567,22.433,14.83,23.409,15.353z M22.185,24.318c0.604-0.346,1.077-0.83,1.42-1.447c0.34-0.617,0.512-1.32,0.512-2.108
		s-0.177-1.498-0.529-2.127c-0.354-0.63-0.838-1.118-1.456-1.465c-0.618-0.348-1.311-0.521-2.074-0.521H17.32v8.192h2.824
		C20.897,24.841,21.576,24.666,22.185,24.318z"/>
</g>
<g>
	<path fill="#FC4777" d="M31.537,24.501c0.284,0.285,0.428,0.653,0.428,1.104c0,0.453-0.144,0.824-0.428,1.115
		c-0.285,0.29-0.654,0.436-1.105,0.436c-0.439,0-0.803-0.146-1.088-0.436c-0.284-0.291-0.428-0.662-0.428-1.115
		c0-0.451,0.14-0.819,0.42-1.104c0.278-0.285,0.644-0.429,1.096-0.429C30.883,24.072,31.252,24.216,31.537,24.501z M28.987,14.592
		H32v3.19l-0.553,4.901H29.54l-0.553-4.901V14.592z"/>
</g>
</svg>
