<?xml version="1.0" encoding="utf-8"?>
<!-- Generator: Adobe Illustrator 16.0.5, SVG Export Plug-In . SVG Version: 6.00 Build 0)  -->
<!DOCTYPE svg PUBLIC "-//W3C//DTD SVG 1.1//EN" "http://www.w3.org/Graphics/SVG/1.1/DTD/svg11.dtd">
<svg version="1.1" id="Layer_1" xmlns="http://www.w3.org/2000/svg" xmlns:xlink="http://www.w3.org/1999/xlink" x="0px" y="0px"
	 width="38px" height="40px" viewBox="0 0 38 40" enable-background="new 0 0 38 40" xml:space="preserve">
<path fill="#26699B" d="M26,12v28H4c-2.2,0-4-1.801-4-4V12H26z"/>
<path fill="#05111E" d="M8,2v34c0,2.199-1.8,4-4,4h29c2.2,0,4-1.801,4-4V2H8z"/>
<rect x="14" y="7" fill="#EE407F" width="18" height="4"/>
<rect x="14" y="14" fill="#EE407F" width="8" height="2"/>
<rect x="24" y="14" fill="#EE407F" width="8" height="2"/>
<rect x="14" y="18" fill="#EE407F" width="8" height="2"/>
<rect x="24" y="18" fill="#EE407F" width="8" height="2"/>
<rect x="14" y="22" fill="#EE407F" width="8" height="2"/>
<rect x="24" y="22" fill="#EE407F" width="8" height="2"/>
<rect x="14" y="26" fill="#EE407F" width="8" height="2"/>
<rect x="24" y="26" fill="#EE407F" width="8" height="2"/>
<rect x="14" y="30" fill="#EE407F" width="8" height="2"/>
<rect x="24" y="30" fill="#EE407F" width="8" height="2"/>
<rect x="14" y="34" fill="#EE407F" width="8" height="2"/>
<rect x="24" y="34" fill="#EE407F" width="8" height="2"/>
</svg>
