<?xml version="1.0" encoding="utf-8"?>
<!-- Generator: Adobe Illustrator 16.0.5, SVG Export Plug-In . SVG Version: 6.00 Build 0)  -->
<!DOCTYPE svg PUBLIC "-//W3C//DTD SVG 1.1//EN" "http://www.w3.org/Graphics/SVG/1.1/DTD/svg11.dtd">
<svg version="1.1" id="Layer_1" xmlns="http://www.w3.org/2000/svg" xmlns:xlink="http://www.w3.org/1999/xlink" x="0px" y="0px"
	 width="38px" height="40px" viewBox="0 0 38 40" enable-background="new 0 0 38 40" xml:space="preserve">
<path fill="#05111E" d="M0,36V12h38v24c0,2.2-1.8,4-4,4H4C1.8,40,0,38.2,0,36"/>
<path fill="#EE407F" d="M38,8v6H0V8c0-2.2,1.8-4,4-4h30C36.2,4,38,5.8,38,8"/>
<path fill="#AA3062" d="M28,5c1.657,0,3,1.343,3,3s-1.343,3-3,3s-3-1.343-3-3S26.343,5,28,5"/>
<path fill="#AA3062" d="M10,5c1.657,0,3,1.343,3,3s-1.343,3-3,3S7,9.657,7,8S8.343,5,10,5"/>
<path fill="#05111E" d="M28,1c-1.1,0-2,0.9-2,2v5c0,1.101,0.9,2,2,2s2-0.899,2-2V3C30,1.9,29.1,1,28,1"/>
<path fill="#05111E" d="M10,1C8.9,1,8,1.9,8,3v5c0,1.101,0.9,2,2,2s2-0.899,2-2V3C12,1.9,11.1,1,10,1"/>
<rect x="8" y="19" fill="#AFBDC4" width="6" height="6"/>
<rect x="16" y="19" fill="#AFBDC4" width="6" height="6"/>
<rect x="24" y="19" fill="#AFBDC4" width="6" height="6"/>
<rect x="8" y="27" fill="#AFBDC4" width="6" height="6"/>
<rect x="16" y="27" fill="#AFBDC4" width="6" height="6"/>
<rect x="24" y="27" fill="#EE407F" width="6" height="6"/>
</svg>
