<?xml version="1.0" encoding="utf-8"?>
<!-- Generator: Adobe Illustrator 16.0.5, SVG Export Plug-In . SVG Version: 6.00 Build 0)  -->
<!DOCTYPE svg PUBLIC "-//W3C//DTD SVG 1.1//EN" "http://www.w3.org/Graphics/SVG/1.1/DTD/svg11.dtd">
<svg version="1.1" id="Layer_1" xmlns="http://www.w3.org/2000/svg" xmlns:xlink="http://www.w3.org/1999/xlink" x="0px" y="0px"
	 viewBox="-36.5 338.788 6.031 82.575" enable-background="new -36.5 338.788 6.031 82.575"
	 xml:space="preserve" preserveAspectRatio="none">
<g>
	
		<linearGradient id="SVGID_1_" gradientUnits="userSpaceOnUse" x1="-34.9734" y1="409.7324" x2="-34.9734" y2="347.1561" gradientTransform="matrix(1 0 0 -1 -0.0151 759.8491)">
		<stop  offset="0" style="stop-color:#4E2A89"/>
		<stop  offset="1" style="stop-color:#1A3773"/>
	</linearGradient>
	<path opacity="0.2" fill="url(#SVGID_1_)" enable-background="new    " d="M-36.5,410.788v8.042c0.979,0,2.004-0.004,3.022-0.008
		v-8.042C-34.513,410.784-35.534,410.788-36.5,410.788z"/>
	
		<linearGradient id="SVGID_2_" gradientUnits="userSpaceOnUse" x1="-31.9822" y1="409.2471" x2="-31.9822" y2="347.205" gradientTransform="matrix(1 0 0 -1 -0.0151 759.8491)">
		<stop  offset="0" style="stop-color:#4E2A89"/>
		<stop  offset="1" style="stop-color:#1A3773"/>
	</linearGradient>
	<path opacity="0.2" fill="url(#SVGID_2_)" enable-background="new    " d="M-33.5,406.966c0,0,2.616,0.026,3.005,0.026
		c0-1.398,0-3.288,0-5.542c-0.432,0-2.455,0.021-2.956-0.016L-33.5,406.966z"/>
	
		<linearGradient id="SVGID_3_" gradientUnits="userSpaceOnUse" x1="-31.9666" y1="350.6479" x2="-31.9666" y2="413.712" gradientTransform="matrix(1 0 0 -1 -0.0151 759.8491)">
		<stop  offset="0" style="stop-color:#4E2A89"/>
		<stop  offset="1" style="stop-color:#1A3773"/>
	</linearGradient>
	<path fill="url(#SVGID_3_)" d="M-33.468,338.788v62.647c0,0,2.54,0.016,2.972,0.016c0-18.699,0-62.663,0-62.663H-33.468z"/>
	
		<linearGradient id="SVGID_4_" gradientUnits="userSpaceOnUse" x1="-34.9685" y1="409.7324" x2="-34.9685" y2="347.1561" gradientTransform="matrix(1 0 0 -1 -0.0151 759.8491)">
		<stop  offset="0" style="stop-color:#4E2A89"/>
		<stop  offset="1" style="stop-color:#1A3773"/>
	</linearGradient>
	<path opacity="0.2" fill="url(#SVGID_4_)" enable-background="new    " d="M-33.468,338.788H-36.5v72
		c0.622,0,1.279-0.004,1.945-0.008L-33.468,338.788z"/>
	
		<linearGradient id="SVGID_5_" gradientUnits="userSpaceOnUse" x1="-34.9695" y1="350.6479" x2="-34.9695" y2="413.712" gradientTransform="matrix(1 0 0 -1 -0.0151 759.8491)">
		<stop  offset="0" style="stop-color:#4E2A89"/>
		<stop  offset="1" style="stop-color:#1A3773"/>
	</linearGradient>
	<path fill="url(#SVGID_5_)" d="M-33.468,338.788H-36.5v72c0.622,0,2.35-0.004,3.017-0.008L-33.468,338.788z"/>
</g>
</svg>
