<?xml version="1.0" encoding="utf-8"?>
<!-- Generator: Adobe Illustrator 16.0.5, SVG Export Plug-In . SVG Version: 6.00 Build 0)  -->
<!DOCTYPE svg PUBLIC "-//W3C//DTD SVG 1.1//EN" "http://www.w3.org/Graphics/SVG/1.1/DTD/svg11.dtd">
<svg version="1.1" id="Layer_1" xmlns="http://www.w3.org/2000/svg" xmlns:xlink="http://www.w3.org/1999/xlink" x="0px" y="0px"
	 width="768px" height="82.575px" viewBox="0 0 768 82.575" enable-background="new 0 0 768 82.575" xml:space="preserve" preserveAspectRatio="none">
<linearGradient id="SVGID_1_" gradientUnits="userSpaceOnUse" x1="384.0007" y1="78.2876" x2="384.0007" y2="0.785">
	<stop  offset="0" style="stop-color:#4E2A89"/>
	<stop  offset="1" style="stop-color:#1A3773"/>
</linearGradient>
<path opacity="0.2" fill="url(#SVGID_1_)" enable-background="new    " d="M768,0H0v80.121c8,0,233.167-12.333,298.167-27.333
	C366.5,35.121,460.167,28.121,510,28.121c69.362,0,132.707,8.855,187.077,21.709l-0.534,0.082
	c10.375,2.167,2.833,13.833,19.208,25.583c10.003,6.201,22.083-0.083,25.708-3.625c5.647-4.198,11.245-5.492,15.147-5.433
	c0.076,0.004,0.149,0.016,0.227,0.016c0.89,0,1.874,0.175,2.931,0.406c0.063,0.019,0.135,0.033,0.195,0.053l0.008-0.008
	c2.313,0.519,5,1.299,8.033,1.299V0z"/>
<g>
	<g>
		
			<linearGradient id="SVGID_2_" gradientUnits="userSpaceOnUse" x1="384.0359" y1="830.0444" x2="384.0359" y2="766.9804" gradientTransform="matrix(1 0 0 1 -0.0352 -759.6309)">
			<stop  offset="0" style="stop-color:#4E2A89"/>
			<stop  offset="1" style="stop-color:#1A3773"/>
		</linearGradient>
		<path fill="url(#SVGID_2_)" d="M256.424,0H768c0,0,0,58.131,0,62.663c-5.125,0-15.955-3.156-17.666-3.625
			C700.141,45.325,652.207,22.765,516.5,22.121c-138.006-0.655-189.584,21.167-253.25,30.167C216.932,58.834,45,72,0,72V0H256.424z"
			/>
	</g>
</g>
</svg>
