<?xml version="1.0" encoding="utf-8"?>
<!-- Generator: Adobe Illustrator 16.0.5, SVG Export Plug-In . SVG Version: 6.00 Build 0)  -->
<!DOCTYPE svg PUBLIC "-//W3C//DTD SVG 1.1//EN" "http://www.w3.org/Graphics/SVG/1.1/DTD/svg11.dtd">
<svg version="1.1" id="Layer_1" xmlns="http://www.w3.org/2000/svg" xmlns:xlink="http://www.w3.org/1999/xlink" x="0px" y="0px"
	 width="514.84px" height="76.839px" viewBox="0 0 514.84 76.839" enable-background="new 0 0 514.84 76.839" xml:space="preserve">
<defs>
	<filter id="Adobe_OpacityMaskFilter" filterUnits="userSpaceOnUse" x="0" y="35.903" width="38.126" height="37.86">
		<feColorMatrix  type="matrix" values="1 0 0 0 0  0 1 0 0 0  0 0 1 0 0  0 0 0 1 0"/>
	</filter>
</defs>
<mask maskUnits="userSpaceOnUse" x="0" y="35.903" width="38.126" height="37.86" id="SVGID_1_">
	<g filter="url(#Adobe_OpacityMaskFilter)">
		<linearGradient id="SVGID_2_" gradientUnits="userSpaceOnUse" x1="38.6868" y1="61.3452" x2="-13.56" y2="44.0088">
			<stop  offset="0" style="stop-color:#151515"/>
			<stop  offset="1" style="stop-color:#FFFFFF"/>
		</linearGradient>
		<polygon fill="url(#SVGID_2_)" points="38.126,73.763 0,60.806 0,35.903 38.126,48.859 		"/>
	</g>
</mask>
<polygon mask="url(#SVGID_1_)" fill="#FFFFFF" points="38.126,73.763 0,60.806 0,35.903 38.126,48.859 "/>
<defs>
	<filter id="Adobe_OpacityMaskFilter_1_" filterUnits="userSpaceOnUse" x="0" y="5.05" width="38.126" height="37.859">
		<feColorMatrix  type="matrix" values="1 0 0 0 0  0 1 0 0 0  0 0 1 0 0  0 0 0 1 0"/>
	</filter>
</defs>
<mask maskUnits="userSpaceOnUse" x="0" y="5.05" width="38.126" height="37.859" id="SVGID_3_">
	<g filter="url(#Adobe_OpacityMaskFilter_1_)">
		<linearGradient id="SVGID_4_" gradientUnits="userSpaceOnUse" x1="47.9104" y1="33.5518" x2="-4.3374" y2="16.215">
			<stop  offset="0" style="stop-color:#151515"/>
			<stop  offset="1" style="stop-color:#FFFFFF"/>
		</linearGradient>
		<polygon fill="url(#SVGID_4_)" points="38.126,42.909 0,29.952 0,5.05 38.126,18.006 		"/>
	</g>
</mask>
<polygon mask="url(#SVGID_3_)" fill="#FFFFFF" points="38.126,42.909 0,29.952 0,5.05 38.126,18.006 "/>
<g>
	<path fill="#FFFFFF" d="M99.644,5.054v9.58H78.087v11.429H96.77v9.582H78.087v19.779h-9.923V5.054H99.644z"/>
	<path fill="#FFFFFF" d="M114.427,41.393c0.958,1.46,2.235,2.647,3.833,3.558c1.596,0.914,3.307,1.369,5.132,1.369
		c1.962,0,3.765-0.455,5.406-1.369c1.643-0.91,2.932-2.098,3.867-3.558c0.935-1.46,1.403-2.988,1.403-4.584V5.054h9.787v31.959
		c0,3.606-0.913,6.858-2.738,9.752c-1.825,2.898-4.3,5.158-7.425,6.777c-3.125,1.619-6.559,2.428-10.3,2.428
		c-3.742,0-7.163-0.809-10.266-2.428c-3.103-1.619-5.555-3.879-7.356-6.777c-1.803-2.895-2.704-6.146-2.704-9.752V5.054h9.924
		v31.755C112.99,38.405,113.469,39.933,114.427,41.393z"/>
	<path fill="#FFFFFF" d="M181.219,5.054v9.58h-12.25v40.79h-9.923v-40.79h-11.771v-9.58H181.219z"/>
	<path fill="#FFFFFF" d="M196.003,41.393c0.958,1.46,2.234,2.647,3.833,3.558c1.595,0.914,3.307,1.369,5.132,1.369
		c1.961,0,3.765-0.455,5.407-1.369c1.642-0.91,2.931-2.098,3.867-3.558c0.934-1.46,1.402-2.988,1.402-4.584V5.054h9.786v31.959
		c0,3.606-0.913,6.858-2.737,9.752c-1.826,2.898-4.3,5.158-7.425,6.777c-3.125,1.619-6.559,2.428-10.3,2.428
		c-3.741,0-7.163-0.809-10.266-2.428s-5.555-3.879-7.356-6.777c-1.804-2.895-2.704-6.146-2.704-9.752V5.054h9.924v31.755
		C194.566,38.405,195.045,39.933,196.003,41.393z"/>
	<path fill="#FFFFFF" d="M259.443,55.423l-10.607-16.015h-6.638v16.015h-9.924V5.054h15.261c6.251,0,11.098,1.517,14.544,4.55
		c3.443,3.035,5.166,7.175,5.166,12.421c0,3.104-0.649,6.011-1.949,8.726c-1.301,2.716-3.298,4.849-5.989,6.399l11.702,18.273
		H259.443z M242.198,29.827h7.049c2.691,0,4.653-0.787,5.885-2.361c1.23-1.575,1.849-3.272,1.849-5.098
		c0-1.824-0.526-3.569-1.575-5.235c-1.05-1.665-3.08-2.499-6.091-2.499h-7.116V29.827z"/>
	<path fill="#FFFFFF" d="M284.011,5.054v50.37h-9.924V5.054H284.011z"/>
	<path fill="#FFFFFF" d="M302.215,41.393c0.957,1.46,2.234,2.647,3.833,3.558c1.596,0.914,3.308,1.369,5.132,1.369
		c1.962,0,3.764-0.455,5.408-1.369c1.641-0.91,2.93-2.098,3.866-3.558c0.936-1.46,1.402-2.988,1.402-4.584V5.054h9.786v31.959
		c0,3.606-0.913,6.858-2.737,9.752c-1.826,2.898-4.301,5.158-7.425,6.777c-3.126,1.619-6.56,2.428-10.301,2.428
		c-3.74,0-7.162-0.809-10.265-2.428c-3.104-1.619-5.556-3.879-7.357-6.777c-1.803-2.895-2.703-6.146-2.703-9.752V5.054h9.923v31.755
		C300.777,38.405,301.258,39.933,302.215,41.393z"/>
	<path fill="#FFFFFF" d="M390.363,3v52.423h-9.924V31.401l-16.426,23.336h-0.137l-15.808-21.831v22.517h-9.582V3h0.068
		l25.527,36.203L390.225,3H390.363z"/>
	<path fill="#FFFFFF" d="M408.155,5.054v40.788h23.68v9.582h-33.603V5.054H408.155z"/>
	<path fill="#FFFFFF" d="M461.877,45.568h-16.697l-4.105,9.855h-9.787l22.721-52.354h0.548l22.72,52.354h-11.496L461.877,45.568z
		 M458.594,37.219l-4.859-12.251l-5.065,12.251H458.594z"/>
	<path fill="#FFFFFF" d="M511.596,33.694c1.482,1.984,2.225,4.278,2.225,6.877c0,5.109-1.677,8.863-5.03,11.258
		c-3.354,2.396-7.54,3.594-12.558,3.594h-16.768V5.054h14.782c5.338,0,9.535,1.084,12.592,3.25c3.057,2.167,4.586,5.305,4.586,9.411
		c0,2.508-0.526,4.71-1.574,6.604c-1.049,1.894-2.533,3.411-4.449,4.551C508.05,30.102,510.113,31.709,511.596,33.694z
		 M489.389,25.652h6.022c1.822,0,3.238-0.558,4.243-1.676c1.002-1.118,1.505-2.498,1.505-4.141c0-1.688-0.57-2.977-1.711-3.867
		c-1.141-0.889-2.715-1.334-4.721-1.334h-5.339V25.652z M501.4,44.781c1.437-0.936,2.154-2.338,2.154-4.209
		c0-3.559-2.829-5.337-8.486-5.337h-5.679v10.951h6.363C498.081,46.185,499.961,45.718,501.4,44.781z"/>
</g>
<rect x="397.991" y="60.775" fill="#EE407F" width="115.546" height="9.469"/>
<rect x="0" y="35.636" fill="#00ADEE" width="58.396" height="19.79"/>
<rect x="0" y="5.001" fill="#00ADEE" width="58.396" height="21.234"/>
</svg>
