<?xml version="1.0" encoding="utf-8"?>
<!-- Generator: Adobe Illustrator 16.0.5, SVG Export Plug-In . SVG Version: 6.00 Build 0)  -->
<!DOCTYPE svg PUBLIC "-//W3C//DTD SVG 1.1//EN" "http://www.w3.org/Graphics/SVG/1.1/DTD/svg11.dtd">
<svg version="1.1" id="Layer_1" xmlns="http://www.w3.org/2000/svg" xmlns:xlink="http://www.w3.org/1999/xlink" x="0px" y="0px"
	 width="768px" height="82.575px" viewBox="0 0 768 82.575" enable-background="new 0 0 768 82.575" xml:space="preserve" preserveAspectRatio="none">
<g>
	
		<linearGradient id="SVGID_1_" gradientUnits="userSpaceOnUse" x1="384.0149" y1="70.9448" x2="384.0149" y2="8.3685" gradientTransform="matrix(1 0 0 -1 -0.0151 82.2744)">
		<stop  offset="0" style="stop-color:#4E2A89"/>
		<stop  offset="1" style="stop-color:#1A3773"/>
	</linearGradient>
	<path opacity="0.2" fill="url(#SVGID_1_)" enable-background="new    " d="M249.675-0.958L0,0v80.042
		c56,0,216.925-15.415,259.5-20.755c42.667-4,119.251-29.458,235.508-31.246c0.826,0.01,1.669,0.034,2.501,0.049
		c53.804,0.244,140.282,1.842,247.866,35.259c2.041,0.625,18.209,4.854,22.625,4.854c0-13,0-68.205,0-68.205L249.675-0.958z"/>
</g>
<g>
	<g>
		
			<linearGradient id="SVGID_2_" gradientUnits="userSpaceOnUse" x1="384.0149" y1="11.8604" x2="384.0149" y2="74.9244" gradientTransform="matrix(1 0 0 -1 -0.0151 82.2744)">
			<stop  offset="0" style="stop-color:#4E2A89"/>
			<stop  offset="1" style="stop-color:#1A3773"/>
		</linearGradient>
		<path fill="url(#SVGID_2_)" d="M256.424,0H768c0,0,0,58.131,0,62.663c-5.125,0-15.955-3.157-17.666-3.625
			C700.141,45.324,652.208,22.765,516.5,22.121c-138.005-0.655-189.583,21.167-253.25,30.167C216.932,58.835,45,72,0,72V0H256.424z"
			/>
	</g>
</g>
</svg>
