<?xml version="1.0" encoding="utf-8"?>
<!-- Generator: Adobe Illustrator 16.0.5, SVG Export Plug-In . SVG Version: 6.00 Build 0)  -->
<!DOCTYPE svg PUBLIC "-//W3C//DTD SVG 1.1//EN" "http://www.w3.org/Graphics/SVG/1.1/DTD/svg11.dtd">
<svg version="1.1" id="Layer_1" xmlns="http://www.w3.org/2000/svg" xmlns:xlink="http://www.w3.org/1999/xlink" x="0px" y="0px"
	 width="100.773px" height="47.807px" viewBox="0 0 100.773 47.807" enable-background="new 0 0 100.773 47.807"
	 xml:space="preserve">
<g>
	<path fill="#A3ADAB" d="M41.763,15.705c-0.431-0.155-0.895-0.241-1.381-0.241H12.521c-0.202,0-0.396,0.027-0.589,0.056
		L26.57,25.887L41.763,15.705z"/>
	<polygon fill="#EDF4F3" points="40.687,16.426 40.687,7.875 11.948,7.875 11.948,15.531 26.57,25.887 	"/>
	<polygon fill="#EDF4F3" points="26.57,28.315 11.948,17.96 11.948,38.94 40.687,38.94 40.687,18.854 	"/>
	<path fill="#A3ADAB" d="M11.931,15.52c-0.797,0.116-1.519,0.452-2.089,0.949l2.105,1.491V15.53L11.931,15.52z"/>
	<path fill="#A3ADAB" d="M43.524,16.952c-0.452-0.559-1.061-0.994-1.762-1.247l-1.076,0.721v2.429L43.524,16.952z"/>
	<polygon fill="#EDF4F3" points="40.687,18.854 40.687,16.426 26.57,25.887 11.948,15.531 11.948,17.96 26.57,28.315 	"/>
	<path fill="#B7BCBB" d="M9.843,16.469c-0.794,0.69-1.301,1.672-1.301,2.769v18.864c0,0.7,0.217,1.353,0.571,1.914l17.457-11.7
		L9.843,16.469z"/>
	<path fill="#A3ADAB" d="M9.113,40.016c0.696,1.106,1.958,1.859,3.407,1.859h27.861c1.302,0,2.449-0.607,3.178-1.527L26.57,28.315
		L9.113,40.016z"/>
	<path fill="#B7BCBB" d="M44.362,19.237c0-0.859-0.319-1.646-0.838-2.283L26.57,28.315l16.99,12.033
		c0.498-0.63,0.803-1.402,0.803-2.246L44.362,19.237L44.362,19.237z"/>
	
		<line opacity="0.6" fill="none" stroke="#000000" stroke-width="1.619" stroke-miterlimit="10" enable-background="new    " x1="16.873" y1="12.227" x2="36.841" y2="12.227"/>
	
		<line opacity="0.6" fill="none" stroke="#000000" stroke-width="1.619" stroke-miterlimit="10" enable-background="new    " x1="16.873" y1="17.488" x2="36.841" y2="17.488"/>
	
		<polyline opacity="0.6" fill="#FFFFFF" stroke="#000000" stroke-width="0.8095" stroke-miterlimit="10" enable-background="new    " points="
		40.737,18.753 40.737,7.926 11.948,7.926 11.948,17.943 	"/>
	<polygon opacity="0.4" fill="#C6C6C6" enable-background="new    " points="40.687,18.854 40.687,16.426 26.57,25.887 
		11.948,15.531 11.948,17.96 26.57,28.315 	"/>
</g>
</svg>
