<?xml version="1.0" encoding="utf-8"?>
<!-- Generator: Adobe Illustrator 16.0.5, SVG Export Plug-In . SVG Version: 6.00 Build 0)  -->
<!DOCTYPE svg PUBLIC "-//W3C//DTD SVG 1.1//EN" "http://www.w3.org/Graphics/SVG/1.1/DTD/svg11.dtd">
<svg version="1.1" id="Layer_1" xmlns="http://www.w3.org/2000/svg" xmlns:xlink="http://www.w3.org/1999/xlink" x="0px" y="0px"
	 width="100.773px" height="47.807px" viewBox="0 0 100.773 47.807" enable-background="new 0 0 100.773 47.807"
	 xml:space="preserve">
<g>
	<g>
		<path fill="#FFFFFF" d="M23.292,44.35C11.827,44.35,2.5,35.023,2.5,23.558S11.827,2.766,23.292,2.766s20.792,9.327,20.792,20.792
			S34.757,44.35,23.292,44.35z"/>
		<path fill="#C4D9D6" d="M23.292,4.266c10.638,0,19.292,8.654,19.292,19.292S33.929,42.85,23.292,42.85S4,34.196,4,23.558
			S12.654,4.266,23.292,4.266 M23.292,1.266C10.98,1.266,1,11.246,1,23.558S10.98,45.85,23.292,45.85s22.292-9.98,22.292-22.292
			S35.603,1.266,23.292,1.266L23.292,1.266z"/>
	</g>
</g>
<g>
	<g>
		<circle fill="#FFFFFF" cx="76.772" cy="23.558" r="22.292"/>
	</g>
</g>
<g>
	<g>
		<g>
			<defs>
				<path id="SVGID_1_" d="M19.681,9.18c0,2.014,1.632,3.646,3.646,3.646c2.013,0,3.646-1.635,3.646-3.646s-1.634-3.646-3.646-3.646
					C21.313,5.533,19.681,7.166,19.681,9.18"/>
			</defs>
			<clipPath id="SVGID_2_">
				<use xlink:href="#SVGID_1_"  overflow="visible"/>
			</clipPath>
			<rect x="16.366" y="2.218" clip-path="url(#SVGID_2_)" fill="#FCB74F" width="13.923" height="13.923"/>
		</g>
	</g>
</g>
<g>
	<g>
		<g>
			<defs>
				<path id="SVGID_3_" d="M17.038,22.771h6.621h6.62c0,0,0.535-8.619-6.62-8.619C16.502,14.152,17.038,22.771,17.038,22.771"/>
			</defs>
			<clipPath id="SVGID_4_">
				<use xlink:href="#SVGID_3_"  overflow="visible"/>
			</clipPath>
			<rect x="13.713" y="10.838" clip-path="url(#SVGID_4_)" fill="#488FCC" width="19.891" height="15.249"/>
		</g>
	</g>
</g>
<g>
	<g>
		<g>
			<defs>
				<path id="SVGID_5_" d="M8.354,22.799c0,2.014,1.633,3.646,3.646,3.646s3.646-1.633,3.646-3.646S14.014,19.152,12,19.152
					C9.986,19.152,8.354,20.785,8.354,22.799"/>
			</defs>
			<clipPath id="SVGID_6_">
				<use xlink:href="#SVGID_5_"  overflow="visible"/>
			</clipPath>
			<rect x="5.039" y="15.838" clip-path="url(#SVGID_6_)" fill="#FCB74F" width="13.923" height="13.923"/>
		</g>
	</g>
</g>
<g>
	<g>
		<g>
			<defs>
				<path id="SVGID_7_" d="M5.71,36.391h6.621h6.622c0,0,0.533-8.619-6.622-8.619C5.175,27.771,5.71,36.391,5.71,36.391"/>
			</defs>
			<clipPath id="SVGID_8_">
				<use xlink:href="#SVGID_7_"  overflow="visible"/>
			</clipPath>
			<rect x="2.386" y="24.457" clip-path="url(#SVGID_8_)" fill="#488FCC" width="19.89" height="15.249"/>
		</g>
	</g>
</g>
<g>
	<g>
		<g>
			<defs>
				<path id="SVGID_9_" d="M31.94,18.799c0,2.014,1.634,3.646,3.646,3.646c2.016,0,3.646-1.633,3.646-3.646
					s-1.632-3.646-3.646-3.646C33.574,15.152,31.94,16.785,31.94,18.799"/>
			</defs>
			<clipPath id="SVGID_10_">
				<use xlink:href="#SVGID_9_"  overflow="visible"/>
			</clipPath>
			<rect x="28.625" y="11.838" clip-path="url(#SVGID_10_)" fill="#FCB74F" width="13.923" height="13.923"/>
		</g>
	</g>
</g>
<g>
	<g>
		<g>
			<defs>
				<path id="SVGID_11_" d="M29.297,32.391h6.621h6.621c0,0,0.536-8.619-6.621-8.619C28.763,23.771,29.297,32.391,29.297,32.391"/>
			</defs>
			<clipPath id="SVGID_12_">
				<use xlink:href="#SVGID_11_"  overflow="visible"/>
			</clipPath>
			<rect x="25.974" y="20.457" clip-path="url(#SVGID_12_)" fill="#488FCC" width="19.89" height="15.249"/>
		</g>
	</g>
</g>
<g>
	<g>
		<g>
			<defs>
				<path id="SVGID_13_" d="M73.18,9.18c0,2.014,1.633,3.646,3.646,3.646c2.013,0,3.646-1.635,3.646-3.646s-1.634-3.646-3.646-3.646
					C74.813,5.533,73.18,7.166,73.18,9.18"/>
			</defs>
			<clipPath id="SVGID_14_">
				<use xlink:href="#SVGID_13_"  overflow="visible"/>
			</clipPath>
			<rect x="69.866" y="2.218" clip-path="url(#SVGID_14_)" fill="#FCB74F" width="13.923" height="13.923"/>
		</g>
	</g>
</g>
<g>
	<g>
		<g>
			<defs>
				<path id="SVGID_15_" d="M70.538,22.771h6.621h6.62c0,0,0.535-8.619-6.62-8.619C70.003,14.152,70.538,22.771,70.538,22.771"/>
			</defs>
			<clipPath id="SVGID_16_">
				<use xlink:href="#SVGID_15_"  overflow="visible"/>
			</clipPath>
			<rect x="67.213" y="10.838" clip-path="url(#SVGID_16_)" fill="#488FCC" width="19.892" height="15.249"/>
		</g>
	</g>
</g>
<g>
	<g>
		<g>
			<defs>
				<path id="SVGID_17_" d="M61.854,22.799c0,2.014,1.633,3.646,3.646,3.646c2.014,0,3.646-1.633,3.646-3.646
					s-1.633-3.646-3.646-3.646C63.487,19.153,61.854,20.785,61.854,22.799"/>
			</defs>
			<clipPath id="SVGID_18_">
				<use xlink:href="#SVGID_17_"  overflow="visible"/>
			</clipPath>
			<rect x="58.539" y="15.838" clip-path="url(#SVGID_18_)" fill="#FCB74F" width="13.923" height="13.923"/>
		</g>
	</g>
</g>
<g>
	<g>
		<g>
			<defs>
				<path id="SVGID_19_" d="M59.21,36.391h6.621h6.622c0,0,0.532-8.619-6.622-8.619C58.675,27.771,59.21,36.391,59.21,36.391"/>
			</defs>
			<clipPath id="SVGID_20_">
				<use xlink:href="#SVGID_19_"  overflow="visible"/>
			</clipPath>
			<rect x="55.886" y="24.457" clip-path="url(#SVGID_20_)" fill="#488FCC" width="19.89" height="15.249"/>
		</g>
	</g>
</g>
<g>
	<g>
		<g>
			<defs>
				<path id="SVGID_21_" d="M85.44,18.799c0,2.014,1.635,3.646,3.646,3.646c2.017,0,3.646-1.633,3.646-3.646
					s-1.631-3.646-3.646-3.646C87.074,15.152,85.44,16.785,85.44,18.799"/>
			</defs>
			<clipPath id="SVGID_22_">
				<use xlink:href="#SVGID_21_"  overflow="visible"/>
			</clipPath>
			<rect x="82.125" y="11.838" clip-path="url(#SVGID_22_)" fill="#FCB74F" width="13.923" height="13.923"/>
		</g>
	</g>
</g>
<g>
	<g>
		<g>
			<defs>
				<path id="SVGID_23_" d="M82.797,32.391h6.621h6.621c0,0,0.536-8.619-6.621-8.619C82.262,23.771,82.797,32.391,82.797,32.391"/>
			</defs>
			<clipPath id="SVGID_24_">
				<use xlink:href="#SVGID_23_"  overflow="visible"/>
			</clipPath>
			<rect x="79.473" y="20.457" clip-path="url(#SVGID_24_)" fill="#488FCC" width="19.891" height="15.249"/>
		</g>
	</g>
</g>
<g>
	<g>
		<path fill="#DB1E37" d="M76.792,4.266c10.638,0,19.292,8.654,19.292,19.292S87.429,42.85,76.792,42.85S57.5,34.196,57.5,23.558
			S66.154,4.266,76.792,4.266 M76.792,1.266c-12.312,0-22.292,9.98-22.292,22.292S64.48,45.85,76.792,45.85
			s22.292-9.98,22.292-22.292S89.103,1.266,76.792,1.266L76.792,1.266z"/>
	</g>
</g>
<line fill="none" stroke="#DB1E37" stroke-width="3" stroke-miterlimit="10" x1="91.917" y1="7.8" x2="60.917" y2="38.8"/>
<path fill="#DB1E37" d="M98.95,6.217c0,3.433-2.783,6.215-6.217,6.215c-3.435,0-6.217-2.782-6.217-6.215
	C86.517,2.783,89.3,0,92.734,0C96.168,0,98.95,2.783,98.95,6.217"/>
<rect x="88.608" y="4.941" fill="#FFFFFF" width="7.937" height="2.25"/>
<g>
	<g>
		<path fill="#C4D9D6" d="M23.292,4.266c10.638,0,19.292,8.654,19.292,19.292S33.929,42.85,23.292,42.85S4,34.196,4,23.558
			S12.654,4.266,23.292,4.266 M23.292,1.266C10.98,1.266,1,11.246,1,23.558S10.98,45.85,23.292,45.85s22.292-9.98,22.292-22.292
			S35.603,1.266,23.292,1.266L23.292,1.266z"/>
	</g>
</g>
<path fill="#662D91" d="M45.45,6.217c0,3.433-2.783,6.215-6.217,6.215c-3.435,0-6.217-2.782-6.217-6.215
	C33.017,2.783,35.8,0,39.234,0C42.668,0,45.45,2.783,45.45,6.217"/>
<rect x="37.951" y="2.099" fill="#FFFFFF" width="2.25" height="7.938"/>
<rect x="35.107" y="4.941" fill="#FFFFFF" width="7.937" height="2.25"/>
</svg>
