<?xml version="1.0" encoding="utf-8"?>
<!-- Generator: Adobe Illustrator 16.0.5, SVG Export Plug-In . SVG Version: 6.00 Build 0)  -->
<!DOCTYPE svg PUBLIC "-//W3C//DTD SVG 1.1//EN" "http://www.w3.org/Graphics/SVG/1.1/DTD/svg11.dtd">
<svg version="1.1" id="Layer_1" xmlns="http://www.w3.org/2000/svg" xmlns:xlink="http://www.w3.org/1999/xlink" x="0px" y="0px"
	 width="100.773px" height="47.807px" viewBox="0 0 100.773 47.807" enable-background="new 0 0 100.773 47.807"
	 xml:space="preserve">
<path fill="#898D8C" d="M38.744,35.315H14.259c-1.924,0-3.498-1.519-3.498-3.373V15.079c0-1.856,1.573-3.373,3.498-3.373h24.485
	c1.923,0,3.496,1.517,3.496,3.373v16.863C42.24,33.797,40.667,35.315,38.744,35.315"/>
<path fill="#A2ACAA" d="M41.344,37.281h-25.95c-2.039,0-3.707-1.517-3.707-3.372V17.045c0-1.854,1.668-3.373,3.707-3.373h25.95
	c2.039,0,3.708,1.519,3.708,3.373v16.864C45.052,35.765,43.383,37.281,41.344,37.281"/>
<path fill="#C3D7D5" d="M43.928,39.25H16.382c-2.164,0-3.934-1.519-3.934-3.373V19.013c0-1.854,1.771-3.373,3.934-3.373h27.546
	c2.164,0,3.935,1.519,3.935,3.373v16.864C47.863,37.732,46.092,39.25,43.928,39.25"/>
<path fill="#662D91" d="M36.272,16.31c0-3.666,2.974-6.639,6.64-6.639s6.639,2.973,6.639,6.639c0,3.667-2.973,6.639-6.639,6.639
	S36.272,19.977,36.272,16.31"/>
<rect x="42.24" y="11.986" fill="#FFFFFF" width="2.107" height="8.151"/>
<rect x="39.22" y="15.008" fill="#FFFFFF" width="8.151" height="2.108"/>
<path fill="#898D8C" d="M89.969,35.315H65.485c-1.924,0-3.498-1.519-3.498-3.373V15.079c0-1.856,1.574-3.373,3.498-3.373h24.484
	c1.924,0,3.497,1.517,3.497,3.373v16.863C93.466,33.797,91.893,35.315,89.969,35.315"/>
<path fill="#A2ACAA" d="M92.57,37.281H66.62c-2.039,0-3.707-1.517-3.707-3.372V17.045c0-1.854,1.667-3.373,3.707-3.373H92.57
	c2.039,0,3.707,1.519,3.707,3.373v16.864C96.277,35.765,94.609,37.281,92.57,37.281"/>
<path fill="#C3D7D5" d="M95.154,39.25H67.608c-2.164,0-3.935-1.519-3.935-3.373V19.013c0-1.854,1.771-3.373,3.935-3.373h27.546
	c2.164,0,3.936,1.519,3.936,3.373v16.864C99.088,37.732,97.318,39.25,95.154,39.25"/>
<path fill="#DA1E37" d="M87.498,16.31c0-3.666,2.972-6.639,6.639-6.639c3.665,0,6.638,2.973,6.638,6.639
	c0,3.667-2.973,6.639-6.638,6.639C90.47,22.948,87.498,19.977,87.498,16.31"/>
<rect x="90.445" y="15.008" fill="#FFFFFF" width="8.151" height="2.108"/>
<path fill="#488ECB" d="M31.111,36.2c0,0.048-0.006,0.093-0.007,0.141h3.708c0.001-0.047,0.004-0.094,0.004-0.141
	c0-10.049-8.146-18.194-18.194-18.194c-0.016,0-0.031,0.001-0.047,0.001v3.656C24.603,21.664,31.111,28.173,31.111,36.2z"/>
<path fill="#488ECB" d="M23.843,36.294c0,0.017-0.002,0.03-0.002,0.047h3.655c0-0.031,0.004-0.063,0.004-0.094
	c0-6.034-4.892-10.926-10.926-10.926v3.704C20.589,29.026,23.843,32.28,23.843,36.294z"/>
<path fill="#488ECB" d="M20.326,36.341c0-2.072-1.68-3.752-3.751-3.752v3.752H20.326z"/>
<path opacity="0.33" fill="#488ECB" d="M81.861,36.2c0,0.048-0.007,0.093-0.007,0.141h3.708c0.001-0.047,0.004-0.094,0.004-0.141
	c0-10.049-8.146-18.194-18.194-18.194c-0.016,0-0.031,0.001-0.047,0.001v3.656C75.353,21.664,81.861,28.173,81.861,36.2z"/>
<path opacity="0.33" fill="#488ECB" d="M74.593,36.294c0,0.017-0.003,0.03-0.003,0.047h3.656c0-0.031,0.004-0.063,0.004-0.094
	c0-6.034-4.892-10.926-10.926-10.926v3.704C71.338,29.026,74.593,32.28,74.593,36.294z"/>
<path opacity="0.33" fill="#488ECB" d="M71.076,36.341c0-2.072-1.68-3.752-3.752-3.752v3.752H71.076z"/>
<line fill="none" stroke="#DA1E37" stroke-width="3" stroke-miterlimit="10" x1="70.991" y1="22.786" x2="88.053" y2="32.977"/>
<line fill="none" stroke="#DA1E37" stroke-width="3" stroke-miterlimit="10" x1="87.856" y1="22.858" x2="71.188" y2="32.906"/>
</svg>
