<?xml version="1.0" encoding="utf-8"?>
<!-- Generator: Adobe Illustrator 16.0.5, SVG Export Plug-In . SVG Version: 6.00 Build 0)  -->
<!DOCTYPE svg PUBLIC "-//W3C//DTD SVG 1.1//EN" "http://www.w3.org/Graphics/SVG/1.1/DTD/svg11.dtd">
<svg version="1.1" id="Layer_1" xmlns="http://www.w3.org/2000/svg" xmlns:xlink="http://www.w3.org/1999/xlink" x="0px" y="0px"
	 width="100.773px" height="47.807px" viewBox="0 0 100.773 47.807" enable-background="new 0 0 100.773 47.807"
	 xml:space="preserve">
<path fill="#455A64" d="M36.563,7.281h-8.594C27.969,8.227,27.196,9,26.25,9s-1.719-0.773-1.719-1.719h-8.594
	c-1.891,0-3.438,1.547-3.438,3.438v27.5c0,1.892,1.547,3.438,3.438,3.438h20.625c1.892,0,3.438-1.546,3.438-3.438v-27.5
	C40,8.828,38.454,7.281,36.563,7.281"/>
<path fill="#FFFFFF" d="M36.563,39.078H15.938c-0.516,0-0.859-0.343-0.859-0.859v-27.5c0-0.516,0.344-0.859,0.859-0.859h20.625
	c0.516,0,0.859,0.344,0.859,0.859v27.5C37.422,38.736,37.078,39.078,36.563,39.078"/>
<path fill="#90A4AE" d="M27.969,7.281C27.969,8.227,27.196,9,26.25,9s-1.719-0.773-1.719-1.719h-6.016v3.438
	c0,0.945,0.773,1.719,1.719,1.719h12.031c0.945,0,1.719-0.773,1.719-1.719V7.281H27.969z"/>
<path fill="#90A4AE" d="M26.25,3.844c-1.892,0-3.438,1.547-3.438,3.438s1.546,3.438,3.438,3.438s3.438-1.547,3.438-3.438
	S28.142,3.844,26.25,3.844 M26.25,9c-0.945,0-1.719-0.773-1.719-1.719s0.773-1.719,1.719-1.719s1.719,0.773,1.719,1.719
	S27.196,9,26.25,9"/>
<rect x="23.672" y="26.031" fill="#CFD8DC" width="10.313" height="1.719"/>
<rect x="18.516" y="25.172" fill="#CFD8DC" width="3.438" height="3.438"/>
<rect x="23.672" y="33.031" fill="#CFD8DC" width="10.313" height="1.719"/>
<rect x="18.516" y="32.172" fill="#CFD8DC" width="3.438" height="3.438"/>
<rect x="23.672" y="19.516" fill="#03A9F4" width="10.313" height="1.719"/>
<rect x="18.516" y="18.656" fill="#03A9F4" width="3.438" height="3.438"/>
</svg>
