<?xml version="1.0" encoding="utf-8"?>
<!-- Generator: Adobe Illustrator 16.0.5, SVG Export Plug-In . SVG Version: 6.00 Build 0)  -->
<!DOCTYPE svg PUBLIC "-//W3C//DTD SVG 1.1//EN" "http://www.w3.org/Graphics/SVG/1.1/DTD/svg11.dtd">
<svg version="1.1" id="Layer_1" xmlns="http://www.w3.org/2000/svg" xmlns:xlink="http://www.w3.org/1999/xlink" x="0px" y="0px"
	 width="109.677px" height="168.452px" viewBox="0 0 109.677 168.452" enable-background="new 0 0 109.677 168.452"
	 xml:space="preserve">
<path fill="#FCEE21" d="M95.917,166.479C87.593,82.686,45.418,24.972,23.222,0c0,0,11.098,92.118-15.539,163.149
	C7.683,163.149,60.957,96.004,95.917,166.479z"/>
<path fill="#FCEE21" d="M109.189,109.173c-32.277-19.38-28.633-15.033-49.121-16.56c0,0-9.585-33.012,10.547-25.851
	C90.748,73.923,109.189,109.173,109.189,109.173z"/>
<path fill="#FCEE21" d="M32.49,97.844c0,0-32.709,6.604-29.314,27.532c0,0-15.118-34.416,20.614-51.044
	C35.958,68.669,32.49,97.844,32.49,97.844z"/>
<ellipse transform="matrix(-0.9806 0.1963 -0.1963 -0.9806 114.7958 107.3811)" cx="52.078" cy="59.378" rx="3.052" ry="9.156"/>
<ellipse transform="matrix(-0.9806 0.196 -0.196 -0.9806 92.1365 114.0788)" cx="40.424" cy="61.598" rx="3.052" ry="9.156"/>
<polygon fill="#FCEE21" points="33.059,62.835 45.028,56.413 58.457,57.873 42.4,41.524 "/>
<path fill="none" stroke="#000000" stroke-width="2" stroke-linecap="round" stroke-miterlimit="10" d="M40.649,81.52
	c8.174-7.007,21.604-4.963,21.604-4.963"/>
<path fill="#29ABE2" d="M35.26,70.232c0,0-9.098,9.09-1.926,10.244C40.51,81.628,35.26,70.232,35.26,70.232z"/>
</svg>
