<?xml version="1.0" encoding="utf-8"?>
<!-- Generator: Adobe Illustrator 16.0.5, SVG Export Plug-In . SVG Version: 6.00 Build 0)  -->
<!DOCTYPE svg PUBLIC "-//W3C//DTD SVG 1.1//EN" "http://www.w3.org/Graphics/SVG/1.1/DTD/svg11.dtd">
<svg version="1.1" id="Layer_1" xmlns="http://www.w3.org/2000/svg" xmlns:xlink="http://www.w3.org/1999/xlink" x="0px" y="0px"
	 width="29px" height="29px" viewBox="358.833 78.5 29 29" enable-background="new 358.833 78.5 29 29" xml:space="preserve">
<path fill="#00C9FF" d="M384.154,94.573c0.068-0.486,0.139-0.974,0.139-1.53s-0.07-1.044-0.139-1.53l3.13-2.227
	c0.279-0.209,0.418-0.627,0.209-0.975l-3.061-5.149c-0.21-0.347-0.557-0.487-0.905-0.278l-3.479,1.6
	c-0.835-0.626-1.669-1.113-2.644-1.531l-0.348-3.827c-0.069-0.347-0.349-0.626-0.696-0.626h-5.984c-0.348,0-0.695,0.279-0.695,0.626
	l-0.349,3.827c-0.974,0.418-1.878,0.905-2.644,1.531l-3.479-1.6c-0.347-0.139-0.765,0-0.904,0.278l-2.992,5.149
	c-0.208,0.348-0.069,0.765,0.209,0.975l3.131,2.227c-0.069,0.486-0.139,0.974-0.139,1.53s0.069,1.044,0.139,1.53l-3.271,2.227
	c-0.277,0.209-0.417,0.626-0.208,0.975l2.992,5.148c0.209,0.349,0.557,0.488,0.904,0.278l3.479-1.601
	c0.834,0.626,1.669,1.114,2.644,1.531l0.349,3.828c0.069,0.349,0.347,0.626,0.695,0.626h5.983c0.349,0,0.696-0.277,0.696-0.626
	l0.348-3.828c0.975-0.417,1.879-0.905,2.645-1.531l3.479,1.601c0.348,0.141,0.766,0,0.904-0.278l2.991-5.148
	c0.209-0.349,0.07-0.766-0.209-0.975L384.154,94.573z M368.542,93c0-2.646,2.146-4.791,4.792-4.791c2.646,0,4.791,2.145,4.791,4.791
	c0,2.646-2.145,4.791-4.791,4.791C370.688,97.791,368.542,95.646,368.542,93z"/>
</svg>
