<?xml version="1.0" encoding="utf-8"?>
<!-- Generator: Adobe Illustrator 16.0.5, SVG Export Plug-In . SVG Version: 6.00 Build 0)  -->
<!DOCTYPE svg PUBLIC "-//W3C//DTD SVG 1.1//EN" "http://www.w3.org/Graphics/SVG/1.1/DTD/svg11.dtd">
<svg version="1.1" id="Facebook" xmlns="http://www.w3.org/2000/svg" xmlns:xlink="http://www.w3.org/1999/xlink" x="0px" y="0px"
	 width="200px" height="40px" viewBox="549.166 70.5 200 40" enable-background="new 549.166 70.5 200 40" xml:space="preserve">
<g>
	<g>
		<path id="facebook-facebook" fill="#FFFFFF" d="M580.572,78.114h-22.48c-0.771,0-1.396,0.625-1.396,1.395v22.482
			c0,0.771,0.625,1.395,1.396,1.395h12.102V93.6H566.9v-3.814h3.293v-2.813c0-3.264,1.994-5.042,4.906-5.042
			c1.395,0,2.594,0.104,2.941,0.15v3.411l-2.018,0.001c-1.584,0-1.891,0.752-1.891,1.857v2.435h3.775l-0.49,3.814h-3.285v9.786
			h6.439c0.771,0,1.395-0.624,1.395-1.395V79.509C581.967,78.739,581.344,78.114,580.572,78.114z"/>
	</g>
	<g>
		<g id="linkedin-linkedin">
			<path fill="#FFFFFF" d="M597.518,86.548h5.137v16.514h-5.137V86.548z M600.088,78.339c1.641,0,2.975,1.333,2.975,2.976
				c0,1.644-1.334,2.977-2.975,2.977c-1.65,0-2.979-1.333-2.979-2.977C597.109,79.673,598.438,78.339,600.088,78.339"/>
			<path fill="#FFFFFF" d="M605.875,86.548h4.918v2.257h0.07c0.686-1.298,2.359-2.667,4.855-2.667c5.197,0,6.156,3.419,6.156,7.866
				v9.058h-5.131v-8.031c0-1.915-0.033-4.379-2.666-4.379c-2.672,0-3.078,2.088-3.078,4.242v8.168h-5.125V86.548z"/>
		</g>
	</g>
	<path id="twitter-twitter" fill="#FFFFFF" d="M662.98,83.045c-0.969,0.429-2.008,0.719-3.1,0.85
		c1.113-0.668,1.969-1.726,2.371-2.985c-1.041,0.618-2.197,1.067-3.426,1.31c-0.984-1.049-2.387-1.704-3.939-1.704
		c-2.98,0-5.396,2.416-5.396,5.396c0,0.423,0.049,0.834,0.141,1.23c-4.486-0.225-8.461-2.374-11.125-5.638
		c-0.463,0.796-0.729,1.724-0.729,2.713c0,1.872,0.951,3.523,2.4,4.491c-0.885-0.027-1.717-0.271-2.445-0.675
		c0,0.022,0,0.045,0,0.068c0,2.615,1.859,4.796,4.328,5.292c-0.451,0.123-0.93,0.189-1.422,0.189c-0.348,0-0.686-0.035-1.014-0.097
		c0.686,2.143,2.68,3.704,5.041,3.747c-1.848,1.447-4.176,2.311-6.703,2.311c-0.436,0-0.865-0.026-1.287-0.076
		c2.389,1.531,5.225,2.425,8.271,2.425c9.928,0,15.355-8.223,15.355-15.354c0-0.234-0.006-0.466-0.016-0.698
		C661.342,85.078,662.256,84.127,662.98,83.045z"/>
	<g>
		<g id="google--google-">
			<g>
				<path fill="#FFFFFF" d="M674.047,91.517c-0.189-4.981,4.176-9.585,9.162-9.645c2.541-0.217,5.014,0.77,6.938,2.38
					c-0.789,0.867-1.594,1.725-2.449,2.528c-1.693-1.029-3.732-1.813-5.711-1.117c-3.193,0.909-5.125,4.678-3.945,7.8
					c0.979,3.261,4.947,5.05,8.055,3.68c1.611-0.576,2.67-2.062,3.137-3.656c-1.846-0.038-3.689-0.015-5.535-0.066
					c-0.004-1.098-0.01-2.19-0.004-3.288c3.076-0.004,6.158-0.013,9.24,0.015c0.188,2.688-0.209,5.567-1.957,7.726
					c-2.395,3.081-6.816,3.985-10.416,2.776C676.74,99.396,673.965,95.549,674.047,91.517"/>
				<path fill="#FFFFFF" d="M698.93,87.366h2.744c0.006,0.918,0.012,1.84,0.018,2.758c0.918,0.009,1.842,0.013,2.758,0.019v2.749
					c-0.916,0.005-1.84,0.009-2.758,0.013c-0.008,0.923-0.012,1.841-0.018,2.764c-0.92-0.005-1.836,0-2.752,0
					c-0.008-0.923-0.008-1.841-0.016-2.759c-0.918-0.009-1.842-0.013-2.758-0.018v-2.749c0.916-0.006,1.834-0.01,2.758-0.019
					C698.912,89.206,698.92,88.284,698.93,87.366"/>
			</g>
		</g>
	</g>
	<g>
		<path fill="#FFFFFF" d="M728.758,92.655l-12.061-6.677v12.895c0,0.218,0.178,0.394,0.395,0.394h24.15
			c0.219,0,0.395-0.176,0.395-0.394V85.716l-12.322,6.94C729.16,92.811,728.912,92.811,728.758,92.655z"/>
		<path fill="#FFFFFF" d="M729.314,90.819l12.322-6.941v-0.93c0-0.218-0.176-0.394-0.395-0.394h-24.15
			c-0.217,0-0.395,0.176-0.395,0.394v1.193l12.061,6.678C728.912,90.973,729.16,90.973,729.314,90.819z"/>
	</g>
</g>
</svg>
